/* XPM */
static char *d5f9f096bc6540beb5a5dc941f8d947d0Ki102t8ww5P8Pw6[] = {
/* columns rows colors chars-per-pixel */
"44 44 185 2 ",
"   c #3B3F3D",
".  c #33403C",
"X  c #344544",
"o  c #364A45",
"O  c #394C44",
"+  c #3A4D4C",
"@  c #3E5347",
"#  c #3C524D",
"$  c #3A4E52",
"%  c #3B5354",
"&  c #3D5A54",
"*  c #3D5559",
"=  c #3E5B5B",
"-  c #3F635E",
";  c #4B4F46",
":  c #425549",
">  c #48544F",
",  c #445B4D",
"<  c #555047",
"1  c #455853",
"2  c #4B5952",
"3  c #435D59",
"4  c #485F5C",
"5  c #62534D",
"6  c #655F53",
"7  c #6B5F56",
"8  c #725E55",
"9  c #4C614F",
"0  c #436055",
"q  c #4B6454",
"w  c #4D6B55",
"e  c #41615C",
"r  c #4D645B",
"t  c #4B6B5D",
"y  c #506557",
"u  c #5B6656",
"i  c #52645A",
"p  c #59675F",
"a  c #546D5A",
"s  c #59685F",
"d  c #4F7058",
"f  c #54745C",
"g  c #5A715A",
"h  c #56795E",
"j  c #666D5B",
"k  c #736356",
"l  c #796657",
"z  c #79675B",
"x  c #7D6D5A",
"c  c #435E63",
"v  c #426562",
"b  c #496466",
"n  c #466B64",
"m  c #4A6C61",
"M  c #466269",
"N  c #48646C",
"B  c #456A6A",
"V  c #5C6C63",
"C  c #4C7064",
"Z  c #47726C",
"A  c #4B746B",
"S  c #567564",
"D  c #5A7565",
"F  c #557A66",
"G  c #5A7C64",
"H  c #517669",
"J  c #537A6A",
"K  c #5D7D69",
"L  c #4C6C74",
"P  c #4A7572",
"I  c #4E7D76",
"U  c #4D7679",
"Y  c #4E7D7B",
"T  c #527C7D",
"R  c #63736A",
"E  c #657B6A",
"W  c #657E6C",
"Q  c #6B7770",
"!  c #6D7D72",
"~  c #717D76",
"^  c #5E8365",
"/  c #57816E",
"(  c #5C826A",
")  c #4E817C",
"_  c #528275",
"`  c #5D8770",
"'  c #5D8B73",
"]  c #53817E",
"[  c #5B837B",
"{  c #55897B",
"}  c #598D7F",
"|  c #608767",
" . c #618769",
".. c #6B816C",
"X. c #628969",
"o. c #688C6F",
"O. c #67926F",
"+. c #69916D",
"@. c #648A71",
"#. c #678876",
"$. c #6A8C71",
"%. c #75837B",
"&. c #79857E",
"*. c #75897A",
"=. c #768B7B",
"-. c #6B9673",
";. c #6D9B75",
":. c #639379",
">. c #6C9C7B",
",. c #709D76",
"<. c #719E7A",
"1. c #74A47C",
"2. c #76A97E",
"3. c #79AB7F",
"4. c #508480",
"5. c #548B83",
"6. c #579084",
"7. c #5B9585",
"8. c #569289",
"9. c #5B9589",
"0. c #5E9C8D",
"q. c #5E9F90",
"w. c #618D80",
"e. c #7D8A82",
"r. c #629A85",
"t. c #629E8C",
"y. c #6DA383",
"u. c #65A48F",
"i. c #6AA68C",
"p. c #6FAA8B",
"a. c #74A782",
"s. c #74AA85",
"d. c #7AAD82",
"f. c #71AD8C",
"g. c #7DB385",
"h. c #75B28E",
"j. c #7BB58D",
"k. c #7EB98D",
"l. c #63A491",
"z. c #6CAB91",
"x. c #838C88",
"c. c #819085",
"v. c #85918B",
"b. c #8A958E",
"n. c #899490",
"m. c #8E9992",
"M. c #929C96",
"N. c #949F98",
"B. c #80B787",
"V. c #80B789",
"C. c #85BE8C",
"Z. c #9AA39D",
"A. c #9DA5A1",
"S. c #A3A7A7",
"D. c #A4A9A7",
"F. c #A7AEA9",
"G. c #AAAFAD",
"H. c #A8B0AB",
"J. c #AEB4B1",
"K. c #B2B5B4",
"L. c #B4B9B6",
"P. c #B6BBB9",
"I. c #B9BDBB",
"U. c #BCC0BE",
"Y. c #BFC3C2",
"T. c #C3C7C5",
"R. c #C7CAC9",
"E. c #CACDCC",
"W. c #CDD0CF",
"Q. c #D4D6D5",
"!. c #D6D8D7",
"~. c #D7D9D9",
"^. c #DADCDC",
"/. c #DDEBE5",
"(. c #E2E3E3",
"). c #E6E7E7",
"_. c #E7E8E8",
"`. c #E9EAE9",
"'. c #EBECEC",
"]. c #E4F0E5",
"[. c #F4F4F4",
"{. c #F5F6F6",
"}. c #F7F8F7",
"|. c #F9F9F9",
" X c white",
/* pixels */
" X X X X X X X X X X X X X X X X X X X X X X X X X X X X X X X X X X X X X X X X X X X X",
" X X X X X X X X X X X X X X X X X X X X[.'.[. X X X X X X X X X X X X X X X X X X X X X",
" X X X X X X X X X X X X X X X X X X X).A.x.R.|. X X X X X X X X X X X X X X X X X X X].",
" X X X).P.^. X X X X[.U.R. X X X XW.K.A.[ A v.[. X X~.P.'. X|.Y.T. X X X^.P.`. X X X X].",
" X X_.b.f c.D.).I.D.Z.G ..D.D.Q.E.%.f R } l.[ n.A.S.=.f m.D.A.E W I.(.D.e.f m.D.G.[. X].",
" X`.v.-.C.:.G v.o.^ / V.d.J ^ =.=.2.;.m s.f.9.4 f F >.C.` G J g.g.$.c.F >.C.' G  .Z.[.].",
" XQ.q C.C.k.V.:.d.C.k.C.C.k.C.>.y.2.t p.C.y.5.m ,.g.k.C.k.V.k.C.C.d.:.V.k.C.k.V.g.p `.].",
" X[.F.F h.C.C.k.C.C.C.C.C.C.C.V.V.1.1 y.s.5.9.9.t g.C.C.C.C.C.C.C.C.k.C.C.C.C.f.D U.|.].",
" X(.! 1.V.C.C.C.C.C.C.C.C.C.C.C.g.G v { 6.5.i.f.H o.B.C.C.C.C.C.C.C.C.C.C.C.C.g.i ^. X].",
" X[.L.f g.C.C.C.C.C.C.B.g.B.C.C.F P r.j.u.q.h.C.s.C ;.C.C.C.C.C.C.C.C.C.C.C.C.C.2.~ '.].",
" X|.I.: / j.C.C.C.g.2.;.-.2.d.g.q J V.g.p.z.l.f.-.3 o.C.C.C.C.C.C.C.C.C.C.C.V.g.2.Q '.].",
" X~.s g.g.C.C.g.2.;.o.| | o.o.1.^ : @.[ s.C.t.5.3 : 1.C.C.C.C.C.C.C.C.C.C.C.h.f 2 Q. X].",
" X^.Q d.C.C.g.;.X.| | | | |  .o.^ n B T w.V.#.Y 5.H ;.B.C.C.C.C.C.C.C.C.C.C.C.g.i (. X].",
" X X~.! a.V.g.-.| | | | |  . .q e Z 5.0.5.] T 9.0.) t 2.C.C.C.C.C.C.C.C.C.C.C.f.D U.|.].",
" X X'.N.` h.1.o.| | | | |  .| : o & { u.0.5.0.l.l.I # 1.B.C.C.C.C.C.C.C.C.C.C.C.g.p `.].",
" X XE.w C.B.;.| | | | | | | | h O 0 _ 6.t.0.z.h.l.7.A F d.B.C.C.C.C.C.C.C.C.C.j.$.N.[.].",
" X XE.q j.C.2.o.| | | | |  .^ q o n A ' h.l.h.C.j.l.8.A F B.C.C.C.C.C.C.C.C.C.h.i (. X].",
" X).e.>.k.C.d.O.| | | |  .^ q & v v t O.y.l.l.f.y.I 4.n a g.C.C.C.C.C.C.C.C.h.K F.[. X].",
" XQ.q C.C.C.;.| | | | | ^ f # - n & 0 H _ l.9.4.) v M + o.B.C.C.C.C.C.C.C.C.k.<.&.`. X].",
" X[.G.F h.C.2.| | | | | ^ h @ X % X = & C 7.l.n Z e v b G B.C.C.C.C.C.C.C.C.C.g.i (. X].",
" X^.R d.V.C.B.o.| | | |  .^ 0 + % X o & = 3 _ # # % Z ] b G B.C.C.C.C.C.C.C.h.f 2 Q. X].",
" X~.V g.C.C.C.1.| | | | ^ w # * = = * v v = = e Y 4.Y U L 4 +.C.C.C.C.C.C.C.V.d.2.! '.].",
" X|.R.W d.C.C.B.o.| | ^ G : % = v v % = Z v P 5.9._ M N 1 q -.C.C.C.C.C.C.C.C.C.2.~ '.].",
" X X XL.C j.C.C.1.| | | ^ , + v v = # A n * c I 7.0.v B q -.g.C.C.C.C.C.C.C.V.2.%.(. X].",
" X X[.A. .C.C.C.g.X.| | ^ q # = = % X & + * v P n A # I A  .C.B.C.C.C.C.C.C.h.S L.[. X].",
" X XE.q k.C.C.C.C.;.| ^ G , % + & - % + % = v B P v v Y L r 1.C.C.C.C.C.C.C.k.;.x.'. X].",
" X'.M.X.j.C.C.C.C.g.X. .^ , O . & v * * * * * = P U 3 M N 3 +.C.C.C.C.C.C.C.j. .A.[. X].",
" XQ.q C.C.C.C.C.C.C.;.| | ^ ^ q + * + + $ X X $ c c + , q w <.C.C.C.C.C.C.C.C.h.r (. X].",
" X'.Z. .C.C.C.C.C.C.g.| | | |  .@ + # # X     X 4 f F d.C.C.C.C.C.C.C.C.C.C.C.j.-.b.[.].",
" X X[.Z./ j.C.C.C.C.C.-.| | | | f w f 9 < 5 5 ; ^ B.B.C.C.C.C.C.C.C.C.C.C.C.C.C.g.p `.].",
" X X!.W a.V.C.C.C.C.C.d.| | | | ^ f 9 6 l l 8 k j o.d.C.C.C.C.C.C.C.C.C.C.C.C.f.D T.|.].",
" X|.Y.t h.C.C.C.C.C.C.C.-.| | ^ h w ; k 8 x 8 8 z a ;.d.C.C.C.C.C.C.C.C.C.C.C.d.V (. X].",
" X^.D g.C.C.C.C.C.C.C.C.3.o.o.G f d q u 6 x 7 j ..| ;.1.B.C.C.C.C.C.C.C.C.C.h.S L.[. X].",
" X^.R d.V.C.C.C.C.C.C.C.C.d.1.X.h f f f g g a G ;.;.1.g.C.C.C.C.C.C.C.C.C.C.C.g.W E.|.].",
" X XT.r h.C.C.C.C.C.C.C.C.C.g.;.^ G h f f f ^ ;.2.2.g.C.C.C.C.C.C.C.C.C.C.C.C.C.g.V '.].",
" X X~.! a.V.C.C.C.C.C.C.C.C.C.3.1.;.|  .;.g.g.g.B.C.C.C.C.C.C.C.C.C.C.C.C.C.k.1.;.e.[.].",
" X X'.N.` j.C.C.C.C.C.C.C.C.C.B.B.g.d.C.C.C.C.C.C.C.C.C.C.C.C.C.C.C.C.C.C.C.h.F > (. X].",
" X'.M.o.C.C.C.C.C.C.C.C.C.C.C.C.C.C.C.C.C.C.C.C.C.C.C.C.C.C.C.C.C.C.C.C.C.C.C.B.o.D.[.].",
" XQ.q C.C.C.C.C.C.C.C.C.C.C.C.C.C.C.C.C.C.C.C.C.C.C.C.C.C.C.C.C.C.C.C.C.C.C.C.C.g.p `.].",
" X'.Z.( j.C.C.C.C.C.C.C.C.C.C.C.C.C.C.C.C.C.C.C.C.C.C.C.C.C.C.C.C.C.C.C.C.C.C.h.K J.[.].",
" X(.! 1.V.C.C.C.C.h.V.C.C.C.C.C.C.C.h.V.V.h.C.C.k.j.C.h.k.C.C.V.h.C.k.h.C.C.C.k.<.e.[.].",
" X!.y B.h.h.C.f.g.S d.C.k.f.g.h.C.B.S 2.d.S g.C.;.( B.K <.f.V.d.f g.;.( B.C.f.j.d.V './.",
" X[.I.i i @.g.D V L.! d.<.r i o.g.E L.! R L.W g.$.2 i H.&.i 2.2.2 i e.D.o.g.K i V E.|.!.",
" X X}.(.(.Z.s U.(.[.Q.R &.(.(.A.s P.[.`.).[.R.V b.(.(.[.`.^.~ ! !.(.'.[.A.s I.(.).|. X|."
};
