/* XPM */
static char * Tree2_xpm[] = {
"44 44 9 1",
" 	c None",
".	c #333C3A",
"+	c #CA5D67",
"@	c #D9816B",
"#	c #E9B47C",
"$	c #93496B",
"%	c #8C5D64",
"&	c #A2786A",
"*	c #C29979",
"                                            ",
"                                            ",
"                                            ",
"                                            ",
"                    ...                     ",
"                   .++.                     ",
"                   .@@+.                    ",
"                   .@@@+.                   ",
"                  .@##@+.                   ",
"                 .@###++.                   ",
"                 .@##++@@.                  ",
"                 ..@+++@@.                  ",
"                .++@++@##+.                 ",
"               .++##@@@###+.                ",
"               .+###@@@@##+.                ",
"               ..##$##@@@...                ",
"                ..$$###$++.                 ",
"               .++++$##$+++.                ",
"              .+++@@+$$$@@++.               ",
"              .++@@@@++@@@++.               ",
"              ...@@@@+@@@@@..               ",
"               .@@@+@@@##@@@+.              ",
"              ..@@+##@@###@@++.             ",
"             .++++###@@@##++++.             ",
"            .+++@.##+@@@++.+$..             ",
"            .++@.+++@@@$+++.$.              ",
"            ...$.++.@@@@.++.+$.             ",
"             .$$...+$.@@....++$.            ",
"            .$$$$$+++$...+++++$$.           ",
"           .$$$++$$+++++++++$$$$.           ",
"           .$$++++.@@+$++@@.$$...           ",
"           ..++++.@@@$$$+@@@.+.             ",
"            .++$$.@@.$$++.@@.++.            ",
"           .$$$$+...$$++++...++.            ",
"           .$$.+++$$$$++$++$++$$.           ",
"           ....++$$$$$$$$++$.$$$.           ",
"              .$$$.$$.$.$$$$.....           ",
"               .$$.$$...$$...               ",
"               ... ...%...                  ",
"                   .&&%&.                   ",
"                  .*&*&&*.                  ",
"                 .*&&*&&&*.                 ",
"                 .%&%**%&%.                 ",
"                    %*&%                    "};
