/* XPM */
static char * wall_xpm[] = {
"44 44 37 1",
" 	c None",
".	c #333C3A",
"+	c #518782",
"@	c #85BE8C",
"#	c #64A693",
"$	c #4B6875",
"%	c #85BD8C",
"&	c #81B988",
"*	c #78AC7F",
"=	c #72A379",
"-	c #6D9C74",
";	c #6B9972",
">	c #6E9D75",
",	c #699770",
"'	c #699670",
")	c #8C5D64",
"!	c #A2786A",
"~	c #54785B",
"{	c #C29979",
"]	c #54785C",
"^	c #54795C",
"/	c #557A5D",
"(	c #577C5E",
"_	c #5B8262",
":	c #7CB183",
"<	c #77AA7E",
"[	c #5E8765",
"}	c #628C69",
"|	c #83BB8A",
"1	c #81B888",
"2	c #7AAF81",
"3	c #70A077",
"4	c #597F60",
"5	c #618A68",
"6	c #66916D",
"7	c #508475",
"8	c #2F3937",
"                    ...                     ",
"  ..      ..     ...++.    ..   ..    ..    ",
" .@@.. ...@@... .@@.##+....@@...@@. ..@@... ",
".@@@#@.@@#@@#@@.@@@.###+.@#@@#@#@@@.@#@@#@@.",
".@@@@@#@@@@@@@@#@@.#@@#+.@@@@@@@@@@#@@@@@@@.",
" .#@@@@@@@@@@@@@@.#@@@++.@@@@@@@@@@@@@@@@#. ",
".@@@@@@@@@@@@@@@@.#@@++##.@@@@@@@@@@@@@@@@. ",
" .@@@@@@@@@@@@@@@..#+++##.@@@@@@@@@@@@@@@@@.",
" ..#@@@@@@@@@@@@.++#++#@@+.@@@@@@@@@@@@@@@@.",
".@@@@@@@@@@@@@@.++@@###@@@+.@@@@@@@@@@@@#.. ",
".@@@@@@@@@@@@@@.+@@@####@@+.@@@@@@@@@@@@@@. ",
" .@@@@@@@@@@@@@..@@$@@###...@@@@@@@@@@@@@#. ",
"  .#@@@@@@@@@@@@..$$@@@$++.@@@@@@@@@@@@@@@@.",
" .@@@@@@@@@@@@@.++++$@@$+++.@@@@@@@@@@@@@@@.",
" .@@@@@@@@@@@@.+++##+$$$##++.@@@@@@@@@@@@#. ",
" .#@@@@@@@@@@@.++####++###++.@@@@@@@@@@@@@. ",
".@@@@@@@@@@@@@...####+#####..@@@@@@@@@@@#.  ",
".@@@@@@@@@@@@@@.###+###@@###+.@@@@@@@@@@@@. ",
" .#@@@@@@@@@@@..##+@@##@@@##++.@@@@@@@@@@@. ",
".@@@@@@@@@@@@.++++@@@###@@++++.@@@@@@@@@#.. ",
".@@@@@@@@@@@.+++#.@@+###++.+$..@@@@@@@@@@@@.",
" .@@@@@@@@@@.++#.+++###$+++.$.@@@@@@@@@@@@@.",
"  .#@@@@@@@@...$.++.####.++.+$.@@@@@@@@@@@. ",
"  .@@@@@@@@@@.$$...+$.##....++$.@@@@@@@@#.  ",
" .@@@@@@@@@@.$$$$$+++$...+++++$$.@@@@@@@@@. ",
" .#@@@@@@@@.$$$++$$+++++++++$$$$.@@@@@@@#.  ",
".@@@@@@@@@@.$$++++.##+$++##.$$...@@@@@@@@@. ",
".@@@@@@@@@@..++++.###$$$+###.+.@@@@@@@@@@#. ",
" .@@@@@@@@@@.++$$.##.$$++.##.++.@@@@@@@@@@@.",
"  .#@@@@@@@.$$$$+...$$++++...++.@@@@@@@@@@@.",
" .@@@@@@@@%.$$.+++$$$$++$++$++$$.@@@@@@@@#. ",
" .#@@@@@@@&....++$$$$$$$$++$.$$$.@@@@@@@@@. ",
".@@@@@@@@@*=-;.$$$.$$.$.$$$$.....@@@@@@@#.  ",
".@@@@@@@@@>;,''.$$.$$...$$...;>@@@@@@@@@@@. ",
" .#@@@@@@@'''''...'...)...'''''@@@@@@@@@@@@.",
" .@@@@@@@@'''''''''.!!)!.''''''@@@@@@@@@@@@.",
"  .#@@@@@@''''''~~.{!{!!{.~~'''@@@@@@@@@#.. ",
" .@@@@@@@@>;,''~~.{!!{!!!{.~];>@@@@@@@@@@@. ",
".@@@@@@@@@*=-;^~~.)!){{)!)./(_*@@@@@@@@@@@@.",
".@@@@@@@@@&:<=(]~~~~){!)~](_[}&@@@@@@@@@@@@.",
" .#@@@@@@@%|123]~~~~~~~~~]456|%@@@@@@@@@@#. ",
".@@@@@@@#@@@@@@@''7''7'''7''#@@@@#@@#@@@@@@.",
".@@#@@#@.@@@#@#@@@.''8'''.@@.@#@@.@@.@@@#@@.",
" ...@@.. .@@...@@. .. .@@... ..@@... .@@... "};
