/* XPM */
static char *f1b0a0413031469cb69bd33fe322d925CPo5Ga7lfW3VzTaN[] = {
/* columns rows colors chars-per-pixel */
"48 48 4 1 ",
"  c None",
". c #333C3A",
"X c #64A693",
"o c #85BE8C",
/* pixels */
"                                                ",
"                                                ",
"    ..      ..     ..        ..   ..    ..      ",
"   .oo.. ...oo... .oo. .. ...oo...oo. ..oo...   ",
"  .oooXo.ooXooXoo.ooo..oo.ooXooXoXooo.oXooXoo.  ",
"  .oooooXooooooooXoooXoooXoooooooooooXooooooo.  ",
"   .XooooooooooooooooooooooooooooooooooooooX.   ",
"  .ooooooooooooooooooooooooooooooooooooooooo.   ",
"   .ooooooooooooooooooooooooooooooooooooooooo.  ",
"   ..Xooooooooooooooooooooooooooooooooooooooo.  ",
"  .oooooooooooooooooooooooooooooooooooooooX..   ",
"  .ooooooooooooooooooooooooooooooooooooooooo.   ",
"   .oooooooooooooooooooooooooooooooooooooooX.   ",
"    .Xooooooooooooooooooooooooooooooooooooooo.  ",
"   .ooooooooooooooooooooooooooooooooooooooooo.  ",
"   .oooooooooooooooooooooooooooooooooooooooX.   ",
"   .Xooooooooooooooooooooooooooooooooooooooo.   ",
"  .oooooooooooooooooooooooooooooooooooooooX.    ",
"  .ooooooooooooooooooooooooooooooooooooooooo.   ",
"   .Xooooooooooooooooooooooooooooooooooooooo.   ",
"  .oooooooooooooooooooooooooooooooooooooooX..   ",
"  .oooooooooooooooooooooooooooooooooooooooooo.  ",
"   .ooooooooooooooooooooooooooooooooooooooooo.  ",
"    .Xoooooooooooooooooooooooooooooooooooooo.   ",
"    .oooooooooooooooooooooooooooooooooooooX.    ",
"   .oooooooooooooooooooooooooooooooooooooooo.   ",
"   .XoooooooooooooooooooooooooooooooooooooX.    ",
"  .ooooooooooooooooooooooooooooooooooooooooo.   ",
"  .ooooooooooooooooooooooooooooooooooooooooX.   ",
"   .ooooooooooooooooooooooooooooooooooooooooo.  ",
"    .Xooooooooooooooooooooooooooooooooooooooo.  ",
"   .oooooooooooooooooooooooooooooooooooooooX.   ",
"   .Xooooooooooooooooooooooooooooooooooooooo.   ",
"  .oooooooooooooooooooooooooooooooooooooooX.    ",
"  .ooooooooooooooooooooooooooooooooooooooooo.   ",
"   .Xoooooooooooooooooooooooooooooooooooooooo.  ",
"   .ooooooooooooooooooooooooooooooooooooooooo.  ",
"    .XooooooooooooooooooooooooooooooooooooX..   ",
"   .oooooooooooooooooooooooooooooooooooooooo.   ",
"  .oooooooooooooooooooooooooooooooooooooooooo.  ",
"  .oooooooooooooooooooooooooooooooooooooooooo.  ",
"   .XooooooooooooooooooooooooooooooooooooooX.   ",
"  .oooooooXoooooooooXooXoooXooXooooXooXoooooo.  ",
"  .ooXooXo.oooXoXooo.oo.ooo.oo.oXoo.oo.oooXoo.  ",
"   ...oo.. .oo...oo. .. .oo... ..oo... .oo...   ",
"      ..    ..   ..      ..      ..     ..      ",
"                                                ",
"                                                "
};
