/* XPM */
static char *_f903ca9a5d7438e95221dbd7bee54c3iwhGl4Mrc1d6UC8J[] = {
/* columns rows colors chars-per-pixel */
"32 48 4 1 ",
"  c None",
". c #333C3A",
"X c #64A693",
"o c #85BE8C",
/* pixels */
"oooooooooooooooooooooooooooooooo",
"oooooooooooooooooooooooooooooooo",
"oooooooooooooooooooooooooooooooo",
"oooooooooooooooooooooooooooooooo",
"oooooooooooooooooooooooooooooooo",
"oooooooooooooooooooooooooooooooo",
"oooooooooooooooooooooooooooooooo",
"oooooooooooooooooooooooooooooooo",
"oooooooooooooooooooooooooooooooo",
"oooooooooooooooooooooooooooooooo",
"ooooooooooooooXooooooooooooooooo",
"oooooooooooooo.oXooXoooooooooooo",
"oooooooooooX.. ..oo.oooooooooooo",
"ooooooooooooo.   .. .Xoooooooooo",
"ooooooooooooo.     .oooooooooooo",
"oooooooooooX.      .oooooooooooo",
"oooooooooooo.      .Xooooooooooo",
"ooooooooooX.      .ooooooooooooo",
"oooooooooooo...   .ooooooooooooo",
"oooooooooooo.oo.. .Xoooooooooooo",
"ooooooooooooXooXo.oooooooooooooo",
"oooooooooooooooooXoooooooooooooo",
"oooooooooooooooooooooooooooooooo",
"oooooooooooooooooooooooooooooooo",
"oooooooooooooooooooooooooooooooo",
"oooooooooooooooooooooooooooooooo",
"oooooooooooooooooooooooooooooooo",
"oooooooooooooooooooooooooooooooo",
"oooooooooooooooooooooooooooooooo",
"oooooooooooooooooooooooooooooooo",
"oooooooooooooooooooooooooooooooo",
"oooooooooooooooooooooooooooooooo",
"oooooooooooo.      .Xooooooooooo",
"ooooooooooX.      .ooooooooooooo",
"oooooooooooo...   .ooooooooooooo",
"oooooooooooo.oo.. .Xoooooooooooo",
"ooooooooooooXooXo.oooooooooooooo",
"oooooooooooooooooXoooooooooooooo",
"oooooooooooooooooooooooooooooooo",
"oooooooooooooooooooooooooooooooo",
"oooooooooooooooooooooooooooooooo",
"oooooooooooooooooooooooooooooooo",
"ooooooooooooooooooooooooooooooXo",
"XooXoooooooooooooooooooooooooo.o",
".oo.oooooooooooooooooooooooX.. .",
" .. .Xooooooooooooooooooooooo.  ",
"   .ooooooooooooooooooooooooo.  ",
"   .oooooooooooooooooooooooX.   "
};
