/* XPM */
static char * floor3_xpm[] = {
"44 44 4 1",
" 	c None",
".	c #333C3A",
"+	c #A9BB66",
"@	c #89A350",
"   .   .    . .      .  .  .  .  .     .    ",
"  .+. .+.. .+.+..  ..+..+..+..+..+. . .+..  ",
" ..+@.++@+.++@+@+..+@++.++@++@+@++..+.@+++. ",
".+++++++++@++++++@+++++@++++++++++@++@++@.  ",
" .@++++++++++++++++++++++++++++++++++++++@. ",
".++++++++++++++++++++++++++++++++++++++++++.",
" .@+++++++++++++++++++++++++++++++++++++++. ",
" .++++++++++++++++++++++++++++++++++++++@.  ",
" ..@++++++++++++++++++++++++++++++++++++++. ",
".+++++++++++++++++++++++++++++++++++++++@.. ",
" .+++++++++++++++++++++++++++++++++++++++++.",
" ..@++++++++++++++++++++++++++++++++++++++. ",
".+++++++++++++++++++++++++++++++++++++++@.  ",
" .+++++++++++++++++++++++++++++++++++++++.  ",
" .@+++++++++++++++++++++++++++++++++++++++. ",
".+++++++++++++++++++++++++++++++++++++++@.  ",
" .+++++++++++++++++++++++++++++++++++++++.  ",
"  .@++++++++++++++++++++++++++++++++++++++. ",
" .@+++++++++++++++++++++++++++++++++++++@.  ",
".+++++++++++++++++++++++++++++++++++++++++. ",
" .+++++++++++++++++++++++++++++++++++++++++.",
" .@++++++++++++++++++++++++++++++++++++++@. ",
".+++++++++++++++++++++++++++++++++++++++@.  ",
" .@+++++++++++++++++++++++++++++++++++++++. ",
" .++++++++++++++++++++++++++++++++++++++@.  ",
"  .@++++++++++++++++++++++++++++++++++++++. ",
"  .++++++++++++++++++++++++++++++++++++++@. ",
" .@++++++++++++++++++++++++++++++++++++++++.",
".+++++++++++++++++++++++++++++++++++++++++. ",
" .+++++++++++++++++++++++++++++++++++++++.  ",
" .@+++++++++++++++++++++++++++++++++++++++. ",
".+++++++++++++++++++++++++++++++++++++++@.  ",
" .@+++++++++++++++++++++++++++++++++++++++. ",
" .+++++++++++++++++++++++++++++++++++++++@. ",
"  .@+++++++++++++++++++++++++++++++++++++++.",
" .++++++++++++++++++++++++++++++++++++++++. ",
".+++++++++++++++++++++++++++++++++++++++@.  ",
" .@++++++++++++++++++++++++++++++++++++++@. ",
" .+++++++++++++++++++++++++++++++++++++++++.",
".++++++++++++++++++++++++++++++++++++++++@. ",
" .+@++@++@++@++@++@++@+++@+++++@++++++@+++. ",
" .+.+@.++.+..++.+..++.+.+.@++@+.++@+++.@+++.",
"  ..+. .+..  .+..  .+.. . .+..+..+..+. .+.. ",
"    .   .     .     .      .  .  .  .   .   "};
