/* XPM */
static char * floor4_xpm[] = {
"44 44 4 1",
" 	c None",
".	c #333C3A",
"+	c #85BE8C",
"@	c #64A693",
"  ..      ..     ..        ..   ..    ..    ",
" .++.. ...++... .++. .. ...++...++. ..++... ",
".+++@+.++@++@++.+++..++.++@++@+@+++.+@++@++.",
".+++++@++++++++@+++@+++@+++++++++++@+++++++.",
" .@++++++++++++++++++++++++++++++++++++++@. ",
".+++++++++++++++++++++++++++++++++++++++++. ",
" .+++++++++++++++++++++++++++++++++++++++++.",
" ..@+++++++++++++++++++++++++++++++++++++++.",
".+++++++++++++++++++++++++++++++++++++++@.. ",
".+++++++++++++++++++++++++++++++++++++++++. ",
" .+++++++++++++++++++++++++++++++++++++++@. ",
"  .@+++++++++++++++++++++++++++++++++++++++.",
" .+++++++++++++++++++++++++++++++++++++++++.",
" .+++++++++++++++++++++++++++++++++++++++@. ",
" .@+++++++++++++++++++++++++++++++++++++++. ",
".+++++++++++++++++++++++++++++++++++++++@.  ",
".+++++++++++++++++++++++++++++++++++++++++. ",
" .@+++++++++++++++++++++++++++++++++++++++. ",
".+++++++++++++++++++++++++++++++++++++++@.. ",
".++++++++++++++++++++++++++++++++++++++++++.",
" .+++++++++++++++++++++++++++++++++++++++++.",
"  .@++++++++++++++++++++++++++++++++++++++. ",
"  .+++++++++++++++++++++++++++++++++++++@.  ",
" .++++++++++++++++++++++++++++++++++++++++. ",
" .@+++++++++++++++++++++++++++++++++++++@.  ",
".+++++++++++++++++++++++++++++++++++++++++. ",
".++++++++++++++++++++++++++++++++++++++++@. ",
" .+++++++++++++++++++++++++++++++++++++++++.",
"  .@+++++++++++++++++++++++++++++++++++++++.",
" .+++++++++++++++++++++++++++++++++++++++@. ",
" .@+++++++++++++++++++++++++++++++++++++++. ",
".+++++++++++++++++++++++++++++++++++++++@.  ",
".+++++++++++++++++++++++++++++++++++++++++. ",
" .@++++++++++++++++++++++++++++++++++++++++.",
" .+++++++++++++++++++++++++++++++++++++++++.",
"  .@++++++++++++++++++++++++++++++++++++@.. ",
" .++++++++++++++++++++++++++++++++++++++++. ",
".++++++++++++++++++++++++++++++++++++++++++.",
".++++++++++++++++++++++++++++++++++++++++++.",
" .@++++++++++++++++++++++++++++++++++++++@. ",
".+++++++@+++++++++@++@+++@++@++++@++@++++++.",
".++@++@+.+++@+@+++.++.+++.++.+@++.++.+++@++.",
" ...++.. .++...++. .. .++... ..++... .++... ",
"    ..    ..   ..      ..      ..     ..    "};
